<svg id="Layer_1" data-name="Layer 1" xmlns="http://www.w3.org/2000/svg" viewBox="0 0 563.4 210.88"><defs><style>.cls-1,.cls-4{fill:#fff;}.cls-1{fill-rule:evenodd;}.cls-2{font-size:46.76px;fill:#333;font-family:FuturaLT-Bold, Futura LT;font-weight:700;letter-spacing:0.06em;}.cls-3{font-size:11px;letter-spacing:0.06em;}.cls-4{font-size:21.38px;font-family:FuturaLT-Heavy, Futura LT;font-weight:800;letter-spacing:0.04em;}.cls-5{letter-spacing:0.02em;}</style></defs><path class="cls-1" d="M7078,7213a35.83,35.83,0,0,0-7-71.25,41,41,0,0,0-12.05-28.4c-22.46-22.46-60.62-12-68.85,18.3a40.07,40.07,0,0,0-35.57,11.11c-23.36,23.36-9.92,62.78,21.78,68.05v59.73h-15.74c-4.78,0-4.78,7.25,0,7.25h133.19c4.77,0,4.77-7.25,0-7.25H7078V7213Zm-93.72-2.95a2.39,2.39,0,0,1,0-4.77c5,0,11.52-2,17-6a22.85,22.85,0,0,0,9.21-12.8,2.38,2.38,0,1,1,4.62,1.16,27.67,27.67,0,0,1-11.05,15.5c-6.26,4.52-13.92,6.87-19.73,6.87ZM7036,7239.8H7047v11.05H7036V7239.8Zm0-16H7047v11.05H7036v-11.05Zm16.14,0h11.05v11.05h-11.05v-11.05Zm0,16h11.05v11.05h-11.05Z" transform="translate(-6942.75 -7101.24)"/><text class="cls-2" transform="translate(154.21 138.01)">CAKEHOUSE<tspan class="cls-3" x="322.89" y="0">®</tspan></text><text class="cls-4" transform="translate(274.2 164.16)">BAKE<tspan class="cls-5" x="53.81" y="0">R</tspan><tspan x="66.27" y="0">Y</tspan></text></svg>